<svg xmlns="http://www.w3.org/2000/svg" viewBox="0 0 256 256"><title>animeui</title><path d="M175,67.1h-7L182.08,59a4.72,4.72,0,0,0,1.7-6.41,4.63,4.63,0,0,0-6.3-1.74l0,0-28,16.24h-46L78.17,52.57a4.69,4.69,0,0,0-4.69,8.12L84.67,67.1H75A31.25,31.25,0,0,0,43.77,98.35v62.5A31.25,31.25,0,0,0,75,192.1H175a31.25,31.25,0,0,0,31.25-31.25h0V98.35A31.25,31.25,0,0,0,175,67.1Zm15.63,78.12a31.25,31.25,0,0,1-31.25,31.25H90.65A31.25,31.25,0,0,1,59.4,145.22V114A31.25,31.25,0,0,1,90.65,82.72H159.4A31.25,31.25,0,0,1,190.65,114h0Z"/><path d="M86.26,197.09c0,1.26,0,2.52-.14,3.78,0,.61-.1,1.22-.18,1.82.1-.78-.12.7-.17.95a23.25,23.25,0,0,1-.61,2.46,3.87,3.87,0,0,1-.41,1.14s.42-.85.11-.28c-.1.19-.18.38-.28.57s-.28.51-.43.76-.18.25-.25.38c-.28.46.2-.51.27-.35s-.93,1-1.06,1.09c-.36.38.88-.55.22-.18-.17.1-.36.2-.53.31-.58.37.06-.07.32-.11a3.92,3.92,0,0,0-.55.18l-.38.09c-.46.13-.78-.14.46,0-.22,0-.48,0-.71,0s-.6,0-.9,0h-.52c-.83,0-.25-.07.22.06-.25-.07-.52-.12-.78-.18-.54-.14-.33-.46.34.16a3.62,3.62,0,0,0-.48-.25c-.09-.05-.4-.32-.49-.32.28,0,.8.73.26.18l-.5-.5c-.06-.07-.12-.16-.19-.23-.43-.42.51.79.2.25s-.59-.93-.84-1.42l-.18-.37c-.35-.66.23.68.08.19s-.31-.83-.45-1.25c-.25-.8-.46-1.62-.63-2.44-.1-.48-.19-.95-.27-1.43,0-.28-.09-.57-.13-.85.09.68,0-.31-.05-.47-.28-2.48-.33-5-.41-7.47,0-1.69-.12-3.39,0-5.09,0-.28,0-.56.06-.84,0-.44-.26,1,0,.15a4.12,4.12,0,0,0,.15-.58c.07-.44-.25.59-.24.57a2.54,2.54,0,0,1,.16-.28c.22-.36-.81.86-.2.31-.17.16-.92.63-.35.32-1.14.61-.7.27-.28.17.75-.17-1.07,0-.25,0,1.14,0,2.27,0,3.42.09l2.7.14c.56,0,1.11.06,1.67.11l.55.05c.86.08-.72-.14,0,0,.41.09.81.15,1.21.25l.49.14c.55.16.18.38-.2-.11a2.61,2.61,0,0,0,.74.4c.5.19-.44-.19-.38-.3s.29.27.33.32c.38.49-.41-.75-.25-.34.06.13.18.28.25.4.52.82-.16-.73,0,.11.08.31.16.61.23.92a2.06,2.06,0,0,1,.07.4c-.08-.65-.1-.77-.05-.35,0,.11,0,.22,0,.34.2,2.13.15,4.28.15,6.42a3.75,3.75,0,0,0,7.5,0c0-3.82.42-8.41-1.62-11.83-2.15-3.59-6.5-4.19-10.3-4.4-2.78-.16-6.12-.79-8.82.12-3.62,1.23-4.31,4.86-4.36,8.24a79.33,79.33,0,0,0,1,15.4c.63,3.49,1.84,7.26,4.43,9.82a10.62,10.62,0,0,0,9.15,2.63c9.14-1.22,10.49-12.66,10.52-20a3.75,3.75,0,0,0-7.5,0Z"/><path d="M156.29,197.09c0,6.95,1.05,17.38,9.09,19.75a11.86,11.86,0,0,0,9-1.12c2.79-1.81,4.35-4.88,5.28-8,1.52-5.08,1.6-10.58,1.67-15.84,0-3.15.22-7.1-2.22-9.48-2.28-2.23-5.65-1.87-8.55-1.7-4,.24-9.09,0-12,3.29s-2.29,8.87-2.28,13.09a3.75,3.75,0,0,0,7.5,0c0-1.94,0-3.89,0-5.83,0-.38.05-.77.07-1.15.07-1-.13.51,0,0,.07-.29.11-.59.2-.89a3,3,0,0,0,.1-.32c.12-.52-.46.7-.13.31.11-.13.53-.92.11-.25-.53.85.2-.24.22-.16s-.9.71,0,.11c.45-.32.13.28-.35.13.1,0,.44-.16.53-.18a7.69,7.69,0,0,1,.79-.21l.67-.13c.51-.11-.11-.08-.26,0a3.64,3.64,0,0,1,1.24-.11c.56,0,1.11-.07,1.67-.1,1.41-.06,2.82-.18,4.23-.22.5,0,1,0,1.48,0,.91,0-.67-.21-.26,0,.18.07,1,.35.22,0s-.14-.06,0,0c-1.21-.86-.7-.58-.52-.39s.32.41-.08-.15-.08-.08,0,.09c.2.41-.23-.57-.24-.55s.11.29.13.39.1.51.16.75c.13.53-.09-1,0-.09.05.77.09,1.54.09,2.31,0,2.2-.06,4.41-.15,6.61-.06,1.25-.14,2.5-.28,3.74,0,.25,0,.5-.08.75.08-.7,0,.06,0,.23-.09.59-.2,1.17-.32,1.76-.17.82-.37,1.63-.62,2.44-.11.34-.24.68-.35,1s0,.6.08-.17a1.91,1.91,0,0,1-.26.56,12.33,12.33,0,0,1-.82,1.41c-.45.71.48-.48.11-.13-.19.17-.37.38-.54.56-.53.56-.33-.09.22-.13-.12,0-.38.26-.49.32s-.27.12-.39.2,1.12-.35.29-.13l-.79.19c-.56.17,1.19-.09.56-.07-.13,0-.25,0-.37,0-.73,0-1.51-.05-2.22,0-.18,0,1.18.26.46,0l-.52-.14c-.57-.14-.49-.48.23.13-.14-.11-.37-.17-.53-.27s-.86-.63-.26-.13-.14-.14-.27-.27-.34-.4-.53-.58c-.37-.36.28.3.28.36,0-.1-.24-.34-.3-.45a10.72,10.72,0,0,1-.54-.93c-.08-.15-.15-.32-.23-.47-.31-.62.26.81,0,.06s-.58-1.75-.78-2.66c-.13-.55-.22-1.11-.32-1.68,0-.14-.1-.72,0,0l-.12-1.07c-.14-1.51-.19-3-.19-4.53a3.75,3.75,0,0,0-7.5,0Z"/><path d="M90.65,170.22H159.4a25,25,0,0,0,25-25V114a25,25,0,0,0-25-25H90.65a25,25,0,0,0-25,25v31.25A25,25,0,0,0,90.65,170.22Zm57.57-60.74c1.5,0,2.73,2,2.73,4.51s-1.23,4.52-2.73,4.52-2.73-2-2.73-4.52S146.72,109.48,148.22,109.48Zm-3.49,29.34,2.06-1,14.52-7.13c1.72-.84,3.23,1.68,1.51,2.59l-1.94,1L150.1,140l11.28,5.24a1.51,1.51,0,0,1,.48,2.05,1.53,1.53,0,0,1-2,.54l-1.9-.81-13.23-5.65a1.44,1.44,0,0,1-.52-.52A1.51,1.51,0,0,1,144.73,138.82Zm-29.44-2.52,6.16-6.42.08-9.6-4.81-2.51a1.39,1.39,0,0,1-.25-2.31,1.21,1.21,0,0,1,1.49-.41l4.73,1.78,5-2.17.17-.11,0,0a1.5,1.5,0,0,1,1.5,2.59l-4.76,3,.1,9.53,7.14,7.54a1.53,1.53,0,1,1-2.21,2.12L123,132.69l-5.5,5.73a1.33,1.33,0,0,1-1.1.45A1.54,1.54,0,0,1,115.29,136.3Zm-14.73-26.82c1.51,0,2.73,2,2.73,4.51s-1.23,4.52-2.73,4.52-2.73-2-2.73-4.52S99.05,109.48,100.56,109.48ZM86.31,132.35c-1.73-.89-.21-3.43,1.51-2.59l0,0v0l.62.32,1.64.79,16.08,7.78a1.61,1.61,0,0,1,.52.52,1.5,1.5,0,0,1-.52,2.07l-2.32,1.2L87.34,151a1.5,1.5,0,0,1-1.51-2.59L88,147.22l13-7.29Z"/></svg>